<svg width="36" height="29" viewBox="0 0 36 29" fill="none" xmlns="http://www.w3.org/2000/svg">
<path d="M22.95 22.6562H25.65V19.9375H27C27.51 19.9375 27.9375 19.7638 28.2825 19.4164C28.6275 19.069 28.8 18.6385 28.8 18.125V10.875C28.8 10.3615 28.6275 9.93099 28.2825 9.58359C27.9375 9.2362 27.51 9.0625 27 9.0625H21.6C21.09 9.0625 20.6625 9.2362 20.3175 9.58359C19.9725 9.93099 19.8 10.3615 19.8 10.875V18.125C19.8 18.6385 19.9725 19.069 20.3175 19.4164C20.6625 19.7638 21.09 19.9375 21.6 19.9375H22.95V22.6562ZM7.2 19.9375H9.9V16.3125H13.5V19.9375H16.2V9.0625H13.5V13.5938H9.9V9.0625H7.2V19.9375ZM22.5 17.2188V11.7812H26.1V17.2188H22.5ZM3.6 29C2.61 29 1.7625 28.6451 1.0575 27.9352C0.3525 27.2253 0 26.3719 0 25.375V3.625C0 2.62813 0.3525 1.77474 1.0575 1.06484C1.7625 0.354948 2.61 0 3.6 0H32.4C33.39 0 34.2375 0.354948 34.9425 1.06484C35.6475 1.77474 36 2.62813 36 3.625V25.375C36 26.3719 35.6475 27.2253 34.9425 27.9352C34.2375 28.6451 33.39 29 32.4 29H3.6ZM3.6 25.375H32.4V3.625H3.6V25.375Z" fill="white"/>
</svg>
