<svg width="30" height="40" viewBox="0 0 30 40" fill="none" xmlns="http://www.w3.org/2000/svg">
<path d="M15 6.66667C14.0833 6.66667 13.2986 6.34028 12.6458 5.6875C11.9931 5.03472 11.6667 4.25 11.6667 3.33333C11.6667 2.41667 11.9931 1.63194 12.6458 0.979167C13.2986 0.326389 14.0833 0 15 0C15.9167 0 16.7014 0.326389 17.3542 0.979167C18.0069 1.63194 18.3333 2.41667 18.3333 3.33333C18.3333 4.25 18.0069 5.03472 17.3542 5.6875C16.7014 6.34028 15.9167 6.66667 15 6.66667ZM10 31.6667V11.6667C8.33333 11.5278 6.63889 11.3194 4.91667 11.0417C3.19444 10.7639 1.55556 10.4167 0 10L0.833333 6.66667C3 7.25 5.30556 7.67361 7.75 7.9375C10.1944 8.20139 12.6111 8.33333 15 8.33333C17.3889 8.33333 19.8056 8.20139 22.25 7.9375C24.6944 7.67361 27 7.25 29.1667 6.66667L30 10C28.4444 10.4167 26.8056 10.7639 25.0833 11.0417C23.3611 11.3194 21.6667 11.5278 20 11.6667V31.6667H16.6667V21.6667H13.3333V31.6667H10ZM8.33333 40C7.86111 40 7.46528 39.8403 7.14583 39.5208C6.82639 39.2014 6.66667 38.8056 6.66667 38.3333C6.66667 37.8611 6.82639 37.4653 7.14583 37.1458C7.46528 36.8264 7.86111 36.6667 8.33333 36.6667C8.80556 36.6667 9.20139 36.8264 9.52083 37.1458C9.84028 37.4653 10 37.8611 10 38.3333C10 38.8056 9.84028 39.2014 9.52083 39.5208C9.20139 39.8403 8.80556 40 8.33333 40ZM15 40C14.5278 40 14.1319 39.8403 13.8125 39.5208C13.4931 39.2014 13.3333 38.8056 13.3333 38.3333C13.3333 37.8611 13.4931 37.4653 13.8125 37.1458C14.1319 36.8264 14.5278 36.6667 15 36.6667C15.4722 36.6667 15.8681 36.8264 16.1875 37.1458C16.5069 37.4653 16.6667 37.8611 16.6667 38.3333C16.6667 38.8056 16.5069 39.2014 16.1875 39.5208C15.8681 39.8403 15.4722 40 15 40ZM21.6667 40C21.1944 40 20.7986 39.8403 20.4792 39.5208C20.1597 39.2014 20 38.8056 20 38.3333C20 37.8611 20.1597 37.4653 20.4792 37.1458C20.7986 36.8264 21.1944 36.6667 21.6667 36.6667C22.1389 36.6667 22.5347 36.8264 22.8542 37.1458C23.1736 37.4653 23.3333 37.8611 23.3333 38.3333C23.3333 38.8056 23.1736 39.2014 22.8542 39.5208C22.5347 39.8403 22.1389 40 21.6667 40Z" fill="white"/>
</svg>
