<svg width="38" height="29" viewBox="0 0 38 29" fill="none" xmlns="http://www.w3.org/2000/svg">
<path d="M27.1429 12.6875V9.0625H38V12.6875H27.1429ZM14.4762 14.5C12.4857 14.5 10.7817 13.7901 9.36429 12.3703C7.94683 10.9505 7.2381 9.24375 7.2381 7.25C7.2381 5.25625 7.94683 3.54948 9.36429 2.12969C10.7817 0.709896 12.4857 0 14.4762 0C16.4667 0 18.1706 0.709896 19.5881 2.12969C21.0056 3.54948 21.7143 5.25625 21.7143 7.25C21.7143 9.24375 21.0056 10.9505 19.5881 12.3703C18.1706 13.7901 16.4667 14.5 14.4762 14.5ZM0 29V23.925C0 22.8979 0.263889 21.9539 0.791667 21.093C1.31944 20.232 2.02064 19.575 2.89524 19.1219C4.76508 18.1854 6.66508 17.4831 8.59524 17.0148C10.5254 16.5466 12.4857 16.3125 14.4762 16.3125C16.4667 16.3125 18.427 16.5466 20.3571 17.0148C22.2873 17.4831 24.1873 18.1854 26.0571 19.1219C26.9317 19.575 27.6329 20.232 28.1607 21.093C28.6885 21.9539 28.9524 22.8979 28.9524 23.925V29H0ZM3.61905 25.375H25.3333V23.925C25.3333 23.5927 25.2504 23.2906 25.0845 23.0187C24.9187 22.7469 24.7 22.5354 24.4286 22.3844C22.8 21.5688 21.1564 20.957 19.4976 20.5492C17.8389 20.1414 16.1651 19.9375 14.4762 19.9375C12.7873 19.9375 11.1135 20.1414 9.45476 20.5492C7.79603 20.957 6.15238 21.5688 4.52381 22.3844C4.25238 22.5354 4.03373 22.7469 3.86786 23.0187C3.70198 23.2906 3.61905 23.5927 3.61905 23.925V25.375ZM14.4762 10.875C15.4714 10.875 16.3234 10.5201 17.0321 9.81016C17.7409 9.10026 18.0952 8.24687 18.0952 7.25C18.0952 6.25313 17.7409 5.39974 17.0321 4.68984C16.3234 3.97995 15.4714 3.625 14.4762 3.625C13.481 3.625 12.629 3.97995 11.9202 4.68984C11.2115 5.39974 10.8571 6.25313 10.8571 7.25C10.8571 8.24687 11.2115 9.10026 11.9202 9.81016C12.629 10.5201 13.481 10.875 14.4762 10.875Z" fill="white"/>
</svg>
