<svg width="40" height="38" viewBox="0 0 40 38" fill="none" xmlns="http://www.w3.org/2000/svg">
<path d="M35.4759 38L29.2497 31.7786V32.0919H0.582307V27.0789C0.582307 26.0644 0.843598 25.1319 1.36618 24.2815C1.88876 23.4311 2.58305 22.7821 3.44905 22.3345C5.30049 21.4095 7.18178 20.7157 9.09295 20.2532C11.0041 19.7907 12.9451 19.5595 14.916 19.5595C15.2744 19.5595 15.6402 19.5669 16.0134 19.5819C16.3867 19.5968 16.7525 19.6192 17.1109 19.649L15.2296 17.7691C15.1698 17.7691 15.1176 17.7691 15.0728 17.7691C15.028 17.7691 14.9757 17.7691 14.916 17.7691C12.9451 17.7691 11.2579 17.0679 9.85442 15.6655C8.45091 14.2631 7.74916 12.5771 7.74916 10.6078C7.74916 10.5481 7.74916 10.4959 7.74916 10.4511C7.74916 10.4064 7.74916 10.3541 7.74916 10.2945L0 2.55124L2.55319 0L38.0291 35.4488L35.4759 38ZM28.6226 19.828C30.1456 20.0071 31.5789 20.3129 32.9227 20.7456C34.2665 21.1782 35.5207 21.7079 36.6853 22.3345C37.7604 22.9313 38.5816 23.5952 39.1489 24.3263C39.7163 25.0573 40 25.8555 40 26.7208V32.0919H39.776L32.6092 24.9305C32.3404 23.9458 31.8701 23.0133 31.1982 22.1331C30.5263 21.2528 29.6678 20.4845 28.6226 19.828ZM14.916 23.1402C13.2437 23.1402 11.5864 23.3416 9.94401 23.7444C8.3016 24.1472 6.67413 24.7515 5.06159 25.5571C4.79283 25.7063 4.57633 25.9152 4.41209 26.1837C4.24785 26.4523 4.16573 26.7507 4.16573 27.0789V28.5112H25.6663V28.1979L21.7693 24.3039C20.6346 23.916 19.4923 23.625 18.3427 23.4311C17.193 23.2371 16.0508 23.1402 14.916 23.1402ZM23.9642 16.2921C24.5315 15.4566 24.9571 14.5614 25.2408 13.6066C25.5245 12.6517 25.6663 11.6521 25.6663 10.6078C25.6663 9.35454 25.4498 8.14605 25.0168 6.98233C24.5838 5.81861 23.9642 4.75933 23.1579 3.80448C23.576 3.65528 23.994 3.5583 24.4121 3.51355C24.8302 3.46879 25.2482 3.44641 25.6663 3.44641C27.6372 3.44641 29.3244 4.14762 30.7279 5.55006C32.1314 6.95249 32.8331 8.6384 32.8331 10.6078C32.8331 12.5771 32.0941 14.2631 30.6159 15.6655C29.1377 17.0679 27.4132 17.7691 25.4423 17.7691L23.9642 16.2921ZM21.3662 13.6961L18.4994 10.8316C18.4994 10.7719 18.4994 10.7346 18.4994 10.7197C18.4994 10.7048 18.4994 10.6675 18.4994 10.6078C18.4994 9.62309 18.1486 8.78013 17.4468 8.07892C16.7451 7.3777 15.9015 7.02709 14.916 7.02709C14.8563 7.02709 14.819 7.02709 14.804 7.02709C14.7891 7.02709 14.7518 7.02709 14.692 7.02709L11.8253 4.16254C12.3031 3.92383 12.7958 3.7448 13.3035 3.62544C13.8111 3.50609 14.3486 3.44641 14.916 3.44641C16.8869 3.44641 18.5741 4.14762 19.9776 5.55006C21.3811 6.95249 22.0829 8.6384 22.0829 10.6078C22.0829 11.1747 22.0231 11.7118 21.9037 12.2191C21.7842 12.7263 21.6051 13.2187 21.3662 13.6961Z" fill="white"/>
</svg>
