<svg width="487" height="129" viewBox="0 0 487 129" fill="none" xmlns="http://www.w3.org/2000/svg">
<path d="M143.976 9.65186H164.776L186.776 63.2519H187.676L209.676 9.65186H230.476V89.4519H214.076V37.5519H213.376L192.676 89.1519H181.576L160.876 37.3519H160.176V89.4519H143.776V9.65186H143.976Z" fill="url(#paint0_linear_70_154)"/>
<path d="M245.276 27.252H262.176V90.152H245.276V27.252Z" fill="url(#paint1_linear_70_154)"/>
<path d="M277.076 89.5521V29.7521H293.176V40.1521H293.776C294.876 36.4521 296.676 33.6521 299.276 31.7521C301.876 29.8521 304.776 28.8521 308.176 28.8521C311.576 28.8521 309.876 28.8521 310.876 29.0521C311.876 29.1521 312.676 29.2521 313.376 29.4521V44.1521C312.576 43.9521 311.476 43.7521 310.176 43.5521C308.776 43.3521 307.576 43.2521 306.376 43.2521C303.976 43.2521 301.776 43.7521 299.876 44.8521C297.976 45.8521 296.476 47.3521 295.376 49.2521C294.276 51.1521 293.776 53.2521 293.776 55.7521V89.6521H277.176L277.076 89.5521Z" fill="url(#paint2_linear_70_154)"/>
<path d="M374.46 67.7736C375.489 67.0384 375.489 65.4944 374.46 64.7592L361.888 55.2012V76.8905L374.46 67.8471V67.7736Z" fill="url(#paint3_linear_70_154)"/>
<path d="M345.786 43.5108C345.125 42.9961 344.169 43.0697 343.507 43.5108L317.112 64.6854C316.157 65.4207 316.157 66.8911 317.112 67.6264L343.507 88.801C344.169 89.3156 345.125 89.3892 345.786 88.801L360.05 78.1401V53.804L345.786 43.5108ZM345.933 74.3169C341.522 74.3169 337.919 70.7143 337.919 66.3029C337.919 61.8916 341.522 58.2889 345.933 58.2889C350.345 58.2889 353.947 61.8916 353.947 66.3029C353.947 70.7143 350.345 74.3169 345.933 74.3169Z" fill="url(#paint4_linear_70_154)"/>
<path d="M410.976 90.7519C407.176 90.7519 403.776 90.0519 400.776 88.7519C397.776 87.3519 395.376 85.4519 393.676 82.7519C391.976 80.1519 391.076 76.8519 391.076 72.8519C391.076 68.8519 391.676 66.7519 392.876 64.4519C394.076 62.1519 395.776 60.3519 397.876 58.9519C399.976 57.5519 402.376 56.5519 405.076 55.8519C407.776 55.1519 410.576 54.6519 413.576 54.3519C417.076 53.9519 419.876 53.6519 421.976 53.3519C424.076 53.0519 425.676 52.5519 426.576 51.8519C427.576 51.2519 427.976 50.2519 427.976 48.9519V48.7519C427.976 46.2519 427.176 44.3519 425.676 43.0519C424.176 41.6519 421.976 41.0519 419.176 41.0519C416.376 41.0519 413.776 41.7519 412.076 43.0519C410.276 44.3519 409.176 45.9519 408.576 47.9519L393.176 46.7519C393.976 43.1519 395.476 39.9519 397.776 37.3519C400.076 34.6519 402.976 32.6519 406.576 31.1519C410.176 29.6519 414.376 28.9519 419.176 28.9519C423.976 28.9519 425.676 29.3519 428.676 30.1519C431.776 30.9519 434.476 32.1519 436.776 33.7519C439.176 35.3519 441.076 37.4519 442.476 40.0519C443.876 42.5519 444.576 45.6519 444.576 49.2519V89.6519H428.876V81.3519H428.376C427.376 83.2519 426.176 84.8519 424.476 86.2519C422.876 87.6519 420.976 88.7519 418.676 89.5519C416.376 90.3519 413.776 90.7519 410.876 90.7519H410.976ZM415.676 79.2519C418.076 79.2519 420.276 78.7519 422.176 77.8519C424.076 76.8519 425.476 75.5519 426.576 73.8519C427.676 72.1519 428.176 70.3519 428.176 68.1519V61.7519C427.676 62.0519 426.976 62.3519 426.076 62.6519C425.176 62.9519 424.176 63.1519 423.076 63.3519C421.976 63.5519 420.876 63.7519 419.676 63.9519C418.576 64.1519 417.576 64.2519 416.676 64.3519C414.776 64.6519 413.076 65.0519 411.576 65.7519C410.076 66.3519 408.976 67.2519 408.176 68.2519C407.376 69.2519 406.976 70.5519 406.976 72.1519C406.976 74.4519 407.776 76.1519 409.476 77.3519C411.176 78.5519 413.276 79.1519 415.776 79.1519L415.676 79.2519ZM457.576 89.5519V29.7519H474.176V89.6519H457.576V89.5519ZM465.876 22.0519C463.376 22.0519 461.276 21.2519 459.476 19.5519C457.776 17.8519 456.876 15.8519 456.876 13.5519C456.876 11.2519 457.776 9.35186 459.476 7.65186C461.276 5.95186 463.376 5.15186 465.876 5.15186C468.376 5.15186 470.476 5.95186 472.176 7.65186C473.976 9.25186 474.776 11.2519 474.776 13.5519C474.776 15.8519 473.876 17.8519 472.176 19.5519C470.476 21.1519 468.376 22.0519 465.876 22.0519Z" fill="url(#paint5_linear_70_154)"/>
<path d="M146.876 123.752H144.076L150.376 106.152H153.476L159.776 123.752H156.976L151.976 109.352H151.876L146.876 123.752ZM147.276 116.852H156.476V119.052H147.276V116.852ZM164.976 106.052V123.652H162.276V106.052H164.976ZM176.776 123.752H173.976L180.276 106.152H183.376L189.676 123.752H186.876L181.876 109.352H181.776L176.776 123.752ZM177.276 116.852H186.476V119.052H177.276V116.852ZM197.976 123.752H192.276V106.152H198.176C199.876 106.152 201.376 106.552 202.676 107.252C203.876 107.952 204.876 108.952 205.476 110.252C206.176 111.552 206.476 113.152 206.476 114.952C206.476 116.752 206.176 118.352 205.476 119.652C204.776 120.952 203.876 121.952 202.576 122.652C201.276 123.352 199.776 123.752 197.976 123.752ZM194.876 121.452H197.776C199.076 121.452 200.276 121.152 201.076 120.652C201.976 120.152 202.676 119.452 203.076 118.452C203.476 117.452 203.776 116.252 203.776 114.952C203.776 113.652 203.576 112.352 203.076 111.452C202.676 110.452 201.976 109.752 201.076 109.252C200.176 108.752 199.176 108.552 197.876 108.552H194.776V121.552L194.876 121.452ZM209.776 123.752V106.152H212.476V121.452H220.476V123.752H209.876H209.776ZM226.076 106.052V123.652H223.376V106.052H226.076ZM241.876 111.652C241.676 111.152 241.476 110.652 241.176 110.252C240.876 109.852 240.576 109.452 240.176 109.152C239.776 108.852 239.376 108.652 238.876 108.452C238.376 108.252 237.876 108.252 237.276 108.252C236.276 108.252 235.376 108.552 234.576 109.052C233.776 109.552 233.176 110.352 232.676 111.252C232.176 112.252 231.976 113.452 231.976 114.852C231.976 116.252 232.176 117.452 232.676 118.452C233.176 119.452 233.776 120.152 234.576 120.652C235.376 121.152 236.276 121.452 237.376 121.452C238.476 121.452 239.176 121.252 239.876 120.852C240.576 120.452 241.176 119.952 241.576 119.152C241.976 118.452 242.176 117.552 242.176 116.652H242.876C242.876 116.752 237.876 116.752 237.876 116.752V114.552H244.776V116.552C244.776 118.052 244.476 119.352 243.876 120.452C243.276 121.552 242.376 122.352 241.276 122.952C240.176 123.552 238.876 123.852 237.476 123.852C236.076 123.852 234.476 123.452 233.276 122.752C232.076 122.052 231.176 120.952 230.476 119.652C229.776 118.252 229.476 116.652 229.476 114.852C229.476 113.052 229.676 112.152 230.076 111.052C230.476 109.952 230.976 108.952 231.676 108.252C232.376 107.452 233.176 106.852 234.176 106.452C235.176 106.052 236.176 105.852 237.376 105.852C238.576 105.852 239.176 105.952 240.076 106.252C240.876 106.552 241.676 106.952 242.276 107.452C242.876 107.952 243.476 108.552 243.876 109.252C244.276 109.952 244.576 110.752 244.776 111.652H242.076H241.876ZM248.076 123.752V106.152H259.176V108.452H250.776V113.852H258.576V116.152H250.776V121.552H259.276V123.852H248.076V123.752ZM276.976 106.052V123.652H274.576L265.576 110.752H265.376V123.652H262.676V106.052H265.176L274.176 118.952H274.376V106.052H276.976ZM279.976 108.352V106.052H293.576V108.352H288.076V123.652H285.376V108.352H279.876H279.976ZM304.476 123.752H301.676L307.976 106.152H311.076L317.376 123.752H314.576L309.576 109.352H309.476L304.476 123.752ZM304.976 116.852H314.176V119.052H304.976V116.852ZM325.676 123.752H319.976V106.152H325.876C327.576 106.152 329.076 106.552 330.376 107.252C331.576 107.952 332.576 108.952 333.176 110.252C333.876 111.552 334.176 113.152 334.176 114.952C334.176 116.752 333.876 118.352 333.176 119.652C332.476 120.952 331.576 121.952 330.276 122.652C328.976 123.352 327.476 123.752 325.676 123.752ZM322.676 121.452H325.576C326.876 121.452 328.076 121.152 328.876 120.652C329.776 120.152 330.476 119.452 330.876 118.452C331.276 117.452 331.576 116.252 331.576 114.952C331.576 113.652 331.376 112.352 330.876 111.452C330.476 110.452 329.776 109.752 328.876 109.252C327.976 108.752 326.976 108.552 325.676 108.552H322.576V121.552L322.676 121.452ZM358.576 111.852H355.876C355.776 111.252 355.576 110.752 355.276 110.352C354.976 109.952 354.676 109.552 354.276 109.252C353.876 108.952 353.376 108.752 352.876 108.552C352.376 108.352 351.876 108.352 351.276 108.352C350.276 108.352 349.376 108.652 348.576 109.152C347.776 109.652 347.176 110.452 346.676 111.352C346.176 112.352 345.976 113.552 345.976 114.952C345.976 116.352 346.176 117.552 346.676 118.552C347.176 119.552 347.776 120.252 348.576 120.752C349.376 121.252 350.276 121.552 351.276 121.552C352.276 121.552 352.376 121.552 352.876 121.352C353.376 121.152 353.876 120.952 354.276 120.652C354.676 120.352 355.076 119.952 355.276 119.552C355.576 119.152 355.776 118.652 355.876 118.052H358.576C358.476 118.952 358.176 119.752 357.776 120.452C357.376 121.152 356.876 121.752 356.176 122.352C355.576 122.852 354.776 123.252 353.976 123.552C353.176 123.852 352.276 123.952 351.276 123.952C349.776 123.952 348.376 123.552 347.176 122.852C345.976 122.152 345.076 121.052 344.376 119.752C343.676 118.352 343.376 116.752 343.376 114.952C343.376 113.152 343.676 111.452 344.376 110.152C345.076 108.752 345.976 107.752 347.176 107.052C348.376 106.352 349.776 105.952 351.276 105.952C352.776 105.952 353.076 106.052 353.876 106.352C354.676 106.652 355.376 107.052 356.076 107.552C356.676 108.052 357.276 108.652 357.676 109.452C358.076 110.152 358.376 111.052 358.576 111.952V111.852ZM363.076 123.752H360.276L366.576 106.152H369.676L375.976 123.752H373.176L368.176 109.352H368.076L363.076 123.752ZM363.576 116.852H372.776V119.052H363.576V116.852ZM378.576 106.052H381.776L387.376 119.752H387.576L393.176 106.052H396.376V123.652H393.876V110.852H393.676L388.476 123.552H386.376L381.176 110.852H380.976V123.652H378.476V106.052H378.576ZM400.376 123.752V106.152H406.676C408.076 106.152 409.176 106.352 410.076 106.852C410.976 107.352 411.676 108.052 412.076 108.852C412.476 109.752 412.776 110.652 412.776 111.752C412.776 112.852 412.576 113.852 412.076 114.652C411.676 115.552 410.976 116.152 410.076 116.652C409.176 117.152 408.076 117.352 406.676 117.352H402.376V115.052H406.476C407.376 115.052 408.076 114.952 408.576 114.652C409.076 114.352 409.476 113.952 409.776 113.452C410.076 112.952 410.176 112.352 410.176 111.652C410.176 110.952 410.076 110.352 409.776 109.852C409.476 109.352 409.076 108.952 408.576 108.652C408.076 108.352 407.276 108.252 406.476 108.252H403.176V123.552H400.476L400.376 123.752ZM415.476 123.752H412.676L418.976 106.152H422.076L428.376 123.752H425.576L420.576 109.352H420.476L415.476 123.752ZM415.976 116.852H425.176V119.052H415.976V116.852ZM433.576 106.052V123.652H430.876V106.052H433.576ZM449.476 111.652C449.276 111.152 449.076 110.652 448.776 110.252C448.476 109.852 448.176 109.452 447.776 109.152C447.376 108.852 446.976 108.652 446.476 108.452C445.976 108.252 445.476 108.252 444.876 108.252C443.876 108.252 442.976 108.552 442.176 109.052C441.376 109.552 440.776 110.352 440.276 111.252C439.776 112.252 439.576 113.452 439.576 114.852C439.576 116.252 439.776 117.452 440.276 118.452C440.776 119.452 441.376 120.152 442.176 120.652C442.976 121.152 443.876 121.452 444.976 121.452C446.076 121.452 446.776 121.252 447.476 120.852C448.176 120.452 448.776 119.952 449.176 119.152C449.576 118.452 449.776 117.552 449.776 116.652H450.476C450.476 116.752 445.476 116.752 445.476 116.752V114.552H452.376V116.552C452.376 118.052 452.076 119.352 451.476 120.452C450.876 121.552 449.976 122.352 448.876 122.952C447.776 123.552 446.476 123.852 445.076 123.852C443.676 123.852 442.076 123.452 440.876 122.752C439.676 122.052 438.776 120.952 438.076 119.652C437.376 118.252 437.076 116.652 437.076 114.852C437.076 113.052 437.276 112.152 437.676 111.052C438.076 109.952 438.576 108.952 439.276 108.252C439.976 107.452 440.776 106.852 441.776 106.452C442.776 106.052 443.776 105.852 444.976 105.852C446.176 105.852 446.776 105.952 447.676 106.252C448.476 106.552 449.276 106.952 449.876 107.452C450.476 107.952 451.076 108.552 451.476 109.252C451.876 109.952 452.176 110.752 452.376 111.652H449.676H449.476ZM469.876 106.052V123.652H467.476L458.476 110.752H458.276V123.652H455.576V106.052H458.076L467.076 118.952H467.276V106.052H469.876ZM483.376 110.752C483.376 109.952 482.876 109.352 482.276 108.852C481.576 108.352 480.776 108.152 479.776 108.152C478.776 108.152 478.476 108.252 477.876 108.452C477.376 108.652 476.976 108.952 476.676 109.352C476.376 109.752 476.276 110.152 476.276 110.652C476.276 111.152 476.276 111.452 476.576 111.752C476.776 112.052 477.076 112.352 477.376 112.552C477.676 112.752 478.076 112.952 478.476 113.052C478.876 113.152 479.176 113.252 479.576 113.352L481.276 113.752C481.876 113.852 482.376 114.052 482.976 114.352C483.576 114.552 484.076 114.852 484.576 115.252C485.076 115.652 485.476 116.152 485.776 116.652C486.076 117.252 486.276 117.852 486.276 118.652C486.276 119.452 485.976 120.552 485.476 121.352C484.976 122.152 484.176 122.752 483.276 123.152C482.276 123.552 481.176 123.852 479.776 123.852C478.376 123.852 477.276 123.652 476.376 123.252C475.376 122.852 474.676 122.252 474.076 121.452C473.576 120.652 473.276 119.752 473.176 118.652H475.876C475.876 119.252 476.176 119.852 476.476 120.252C476.876 120.652 477.276 120.952 477.876 121.152C478.476 121.352 479.076 121.452 479.776 121.452C480.476 121.452 481.176 121.352 481.776 121.052C482.376 120.852 482.876 120.452 483.176 120.052C483.476 119.652 483.676 119.152 483.676 118.552C483.676 117.952 483.576 117.652 483.276 117.252C482.976 116.952 482.576 116.652 482.076 116.452C481.576 116.252 480.976 116.052 480.376 115.852L478.276 115.252C476.876 114.852 475.776 114.352 474.876 113.552C474.076 112.852 473.676 111.852 473.676 110.552C473.676 109.252 473.976 108.652 474.476 107.852C475.076 107.052 475.776 106.552 476.676 106.052C477.576 105.652 478.676 105.452 479.876 105.452C481.076 105.452 482.076 105.652 483.076 106.052C483.976 106.452 484.676 107.052 485.276 107.752C485.776 108.452 486.076 109.352 486.076 110.252H483.476L483.376 110.752Z" fill="url(#paint6_linear_70_154)"/>
<path d="M146.876 123.752H144.076L150.376 106.152H153.476L159.776 123.752H156.976L151.976 109.352H151.876L146.876 123.752ZM147.276 116.852H156.476V119.052H147.276V116.852ZM164.976 106.052V123.652H162.276V106.052H164.976ZM176.776 123.752H173.976L180.276 106.152H183.376L189.676 123.752H186.876L181.876 109.352H181.776L176.776 123.752ZM177.276 116.852H186.476V119.052H177.276V116.852ZM197.976 123.752H192.276V106.152H198.176C199.876 106.152 201.376 106.552 202.676 107.252C203.876 107.952 204.876 108.952 205.476 110.252C206.176 111.552 206.476 113.152 206.476 114.952C206.476 116.752 206.176 118.352 205.476 119.652C204.776 120.952 203.876 121.952 202.576 122.652C201.276 123.352 199.776 123.752 197.976 123.752ZM194.876 121.452H197.776C199.076 121.452 200.276 121.152 201.076 120.652C201.976 120.152 202.676 119.452 203.076 118.452C203.476 117.452 203.776 116.252 203.776 114.952C203.776 113.652 203.576 112.352 203.076 111.452C202.676 110.452 201.976 109.752 201.076 109.252C200.176 108.752 199.176 108.552 197.876 108.552H194.776V121.552L194.876 121.452ZM209.776 123.752V106.152H212.476V121.452H220.476V123.752H209.876H209.776ZM226.076 106.052V123.652H223.376V106.052H226.076ZM241.876 111.652C241.676 111.152 241.476 110.652 241.176 110.252C240.876 109.852 240.576 109.452 240.176 109.152C239.776 108.852 239.376 108.652 238.876 108.452C238.376 108.252 237.876 108.252 237.276 108.252C236.276 108.252 235.376 108.552 234.576 109.052C233.776 109.552 233.176 110.352 232.676 111.252C232.176 112.252 231.976 113.452 231.976 114.852C231.976 116.252 232.176 117.452 232.676 118.452C233.176 119.452 233.776 120.152 234.576 120.652C235.376 121.152 236.276 121.452 237.376 121.452C238.476 121.452 239.176 121.252 239.876 120.852C240.576 120.452 241.176 119.952 241.576 119.152C241.976 118.452 242.176 117.552 242.176 116.652H242.876C242.876 116.752 237.876 116.752 237.876 116.752V114.552H244.776V116.552C244.776 118.052 244.476 119.352 243.876 120.452C243.276 121.552 242.376 122.352 241.276 122.952C240.176 123.552 238.876 123.852 237.476 123.852C236.076 123.852 234.476 123.452 233.276 122.752C232.076 122.052 231.176 120.952 230.476 119.652C229.776 118.252 229.476 116.652 229.476 114.852C229.476 113.052 229.676 112.152 230.076 111.052C230.476 109.952 230.976 108.952 231.676 108.252C232.376 107.452 233.176 106.852 234.176 106.452C235.176 106.052 236.176 105.852 237.376 105.852C238.576 105.852 239.176 105.952 240.076 106.252C240.876 106.552 241.676 106.952 242.276 107.452C242.876 107.952 243.476 108.552 243.876 109.252C244.276 109.952 244.576 110.752 244.776 111.652H242.076H241.876ZM248.076 123.752V106.152H259.176V108.452H250.776V113.852H258.576V116.152H250.776V121.552H259.276V123.852H248.076V123.752ZM276.976 106.052V123.652H274.576L265.576 110.752H265.376V123.652H262.676V106.052H265.176L274.176 118.952H274.376V106.052H276.976ZM279.976 108.352V106.052H293.576V108.352H288.076V123.652H285.376V108.352H279.876H279.976ZM304.476 123.752H301.676L307.976 106.152H311.076L317.376 123.752H314.576L309.576 109.352H309.476L304.476 123.752ZM304.976 116.852H314.176V119.052H304.976V116.852ZM325.676 123.752H319.976V106.152H325.876C327.576 106.152 329.076 106.552 330.376 107.252C331.576 107.952 332.576 108.952 333.176 110.252C333.876 111.552 334.176 113.152 334.176 114.952C334.176 116.752 333.876 118.352 333.176 119.652C332.476 120.952 331.576 121.952 330.276 122.652C328.976 123.352 327.476 123.752 325.676 123.752ZM322.676 121.452H325.576C326.876 121.452 328.076 121.152 328.876 120.652C329.776 120.152 330.476 119.452 330.876 118.452C331.276 117.452 331.576 116.252 331.576 114.952C331.576 113.652 331.376 112.352 330.876 111.452C330.476 110.452 329.776 109.752 328.876 109.252C327.976 108.752 326.976 108.552 325.676 108.552H322.576V121.552L322.676 121.452ZM358.576 111.852H355.876C355.776 111.252 355.576 110.752 355.276 110.352C354.976 109.952 354.676 109.552 354.276 109.252C353.876 108.952 353.376 108.752 352.876 108.552C352.376 108.352 351.876 108.352 351.276 108.352C350.276 108.352 349.376 108.652 348.576 109.152C347.776 109.652 347.176 110.452 346.676 111.352C346.176 112.352 345.976 113.552 345.976 114.952C345.976 116.352 346.176 117.552 346.676 118.552C347.176 119.552 347.776 120.252 348.576 120.752C349.376 121.252 350.276 121.552 351.276 121.552C352.276 121.552 352.376 121.552 352.876 121.352C353.376 121.152 353.876 120.952 354.276 120.652C354.676 120.352 355.076 119.952 355.276 119.552C355.576 119.152 355.776 118.652 355.876 118.052H358.576C358.476 118.952 358.176 119.752 357.776 120.452C357.376 121.152 356.876 121.752 356.176 122.352C355.576 122.852 354.776 123.252 353.976 123.552C353.176 123.852 352.276 123.952 351.276 123.952C349.776 123.952 348.376 123.552 347.176 122.852C345.976 122.152 345.076 121.052 344.376 119.752C343.676 118.352 343.376 116.752 343.376 114.952C343.376 113.152 343.676 111.452 344.376 110.152C345.076 108.752 345.976 107.752 347.176 107.052C348.376 106.352 349.776 105.952 351.276 105.952C352.776 105.952 353.076 106.052 353.876 106.352C354.676 106.652 355.376 107.052 356.076 107.552C356.676 108.052 357.276 108.652 357.676 109.452C358.076 110.152 358.376 111.052 358.576 111.952V111.852ZM363.076 123.752H360.276L366.576 106.152H369.676L375.976 123.752H373.176L368.176 109.352H368.076L363.076 123.752ZM363.576 116.852H372.776V119.052H363.576V116.852ZM378.576 106.052H381.776L387.376 119.752H387.576L393.176 106.052H396.376V123.652H393.876V110.852H393.676L388.476 123.552H386.376L381.176 110.852H380.976V123.652H378.476V106.052H378.576ZM400.376 123.752V106.152H406.676C408.076 106.152 409.176 106.352 410.076 106.852C410.976 107.352 411.676 108.052 412.076 108.852C412.476 109.752 412.776 110.652 412.776 111.752C412.776 112.852 412.576 113.852 412.076 114.652C411.676 115.552 410.976 116.152 410.076 116.652C409.176 117.152 408.076 117.352 406.676 117.352H402.376V115.052H406.476C407.376 115.052 408.076 114.952 408.576 114.652C409.076 114.352 409.476 113.952 409.776 113.452C410.076 112.952 410.176 112.352 410.176 111.652C410.176 110.952 410.076 110.352 409.776 109.852C409.476 109.352 409.076 108.952 408.576 108.652C408.076 108.352 407.276 108.252 406.476 108.252H403.176V123.552H400.476L400.376 123.752ZM415.476 123.752H412.676L418.976 106.152H422.076L428.376 123.752H425.576L420.576 109.352H420.476L415.476 123.752ZM415.976 116.852H425.176V119.052H415.976V116.852ZM433.576 106.052V123.652H430.876V106.052H433.576ZM449.476 111.652C449.276 111.152 449.076 110.652 448.776 110.252C448.476 109.852 448.176 109.452 447.776 109.152C447.376 108.852 446.976 108.652 446.476 108.452C445.976 108.252 445.476 108.252 444.876 108.252C443.876 108.252 442.976 108.552 442.176 109.052C441.376 109.552 440.776 110.352 440.276 111.252C439.776 112.252 439.576 113.452 439.576 114.852C439.576 116.252 439.776 117.452 440.276 118.452C440.776 119.452 441.376 120.152 442.176 120.652C442.976 121.152 443.876 121.452 444.976 121.452C446.076 121.452 446.776 121.252 447.476 120.852C448.176 120.452 448.776 119.952 449.176 119.152C449.576 118.452 449.776 117.552 449.776 116.652H450.476C450.476 116.752 445.476 116.752 445.476 116.752V114.552H452.376V116.552C452.376 118.052 452.076 119.352 451.476 120.452C450.876 121.552 449.976 122.352 448.876 122.952C447.776 123.552 446.476 123.852 445.076 123.852C443.676 123.852 442.076 123.452 440.876 122.752C439.676 122.052 438.776 120.952 438.076 119.652C437.376 118.252 437.076 116.652 437.076 114.852C437.076 113.052 437.276 112.152 437.676 111.052C438.076 109.952 438.576 108.952 439.276 108.252C439.976 107.452 440.776 106.852 441.776 106.452C442.776 106.052 443.776 105.852 444.976 105.852C446.176 105.852 446.776 105.952 447.676 106.252C448.476 106.552 449.276 106.952 449.876 107.452C450.476 107.952 451.076 108.552 451.476 109.252C451.876 109.952 452.176 110.752 452.376 111.652H449.676H449.476ZM469.876 106.052V123.652H467.476L458.476 110.752H458.276V123.652H455.576V106.052H458.076L467.076 118.952H467.276V106.052H469.876ZM483.376 110.752C483.376 109.952 482.876 109.352 482.276 108.852C481.576 108.352 480.776 108.152 479.776 108.152C478.776 108.152 478.476 108.252 477.876 108.452C477.376 108.652 476.976 108.952 476.676 109.352C476.376 109.752 476.276 110.152 476.276 110.652C476.276 111.152 476.276 111.452 476.576 111.752C476.776 112.052 477.076 112.352 477.376 112.552C477.676 112.752 478.076 112.952 478.476 113.052C478.876 113.152 479.176 113.252 479.576 113.352L481.276 113.752C481.876 113.852 482.376 114.052 482.976 114.352C483.576 114.552 484.076 114.852 484.576 115.252C485.076 115.652 485.476 116.152 485.776 116.652C486.076 117.252 486.276 117.852 486.276 118.652C486.276 119.452 485.976 120.552 485.476 121.352C484.976 122.152 484.176 122.752 483.276 123.152C482.276 123.552 481.176 123.852 479.776 123.852C478.376 123.852 477.276 123.652 476.376 123.252C475.376 122.852 474.676 122.252 474.076 121.452C473.576 120.652 473.276 119.752 473.176 118.652H475.876C475.876 119.252 476.176 119.852 476.476 120.252C476.876 120.652 477.276 120.952 477.876 121.152C478.476 121.352 479.076 121.452 479.776 121.452C480.476 121.452 481.176 121.352 481.776 121.052C482.376 120.852 482.876 120.452 483.176 120.052C483.476 119.652 483.676 119.152 483.676 118.552C483.676 117.952 483.576 117.652 483.276 117.252C482.976 116.952 482.576 116.652 482.076 116.452C481.576 116.252 480.976 116.052 480.376 115.852L478.276 115.252C476.876 114.852 475.776 114.352 474.876 113.552C474.076 112.852 473.676 111.852 473.676 110.552C473.676 109.252 473.976 108.652 474.476 107.852C475.076 107.052 475.776 106.552 476.676 106.052C477.576 105.652 478.676 105.452 479.876 105.452C481.076 105.452 482.076 105.652 483.076 106.052C483.976 106.452 484.676 107.052 485.276 107.752C485.776 108.452 486.076 109.352 486.076 110.252H483.476L483.376 110.752Z" fill="url(#paint7_linear_70_154)"/>
<g filter="url(#filter0_ddi_70_154)">
<path d="M69.7617 107.327C70.7854 107.431 71.5848 108.295 71.585 109.346V121.122L71.5742 121.329C71.4773 122.284 70.7174 123.044 69.7617 123.141L69.5547 123.152H57.7793L57.5713 123.141C56.616 123.044 55.8567 122.284 55.7598 121.329L55.749 121.122V109.346C55.7492 108.295 56.5479 107.431 57.5713 107.327L57.7793 107.316H69.5547L69.7617 107.327ZM57.7793 108.534C57.331 108.534 56.967 108.898 56.9668 109.346V121.122C56.967 121.57 57.3309 121.933 57.7793 121.933H69.5547C70.003 121.933 70.3661 121.57 70.3662 121.122V109.346C70.366 108.898 70.0029 108.534 69.5547 108.534H57.7793ZM63.9609 110.565C64.1221 110.565 64.2539 110.702 64.2539 110.87V111.783C64.8295 111.785 65.3907 111.989 65.8398 112.354C65.9843 112.47 66.0028 112.689 65.873 112.82L65.2344 113.467C65.139 113.564 64.9887 113.583 64.877 113.505C64.6937 113.376 64.4736 113.305 64.25 113.305H63.0352C62.7364 113.305 62.4942 113.557 62.4941 113.867C62.4941 114.114 62.6537 114.337 62.8828 114.406L64.8623 115.007C65.9237 115.329 66.5854 116.531 66.1914 117.704C65.9091 118.543 65.1082 119.07 64.2539 119.087V120.005C64.2537 120.173 64.122 120.31 63.9609 120.31H63.374C63.2128 120.31 63.0812 120.173 63.0811 120.005V119.091C62.5054 119.089 61.9443 118.885 61.4951 118.52C61.3504 118.404 61.3318 118.186 61.4619 118.054L62.0996 117.407C62.1948 117.31 62.3453 117.291 62.457 117.369C62.6403 117.498 62.8604 117.569 63.084 117.569H64.2998C64.5986 117.569 64.8408 117.318 64.8408 117.007C64.8408 116.76 64.6812 116.539 64.4521 116.468L62.5732 115.898C61.7593 115.651 61.1131 114.937 61.0361 114.059C60.928 112.824 61.8674 111.783 63.0352 111.783H63.0811V110.87C63.0811 110.702 63.2127 110.565 63.374 110.565H63.9609ZM39.4482 108.565C43.9826 110.974 48.9179 112.732 54.1289 113.716L54.1396 116.608C48.5211 115.605 43.1994 113.75 38.3145 111.18L39.4482 108.565ZM93.1611 109.022C87.3126 112.713 80.7153 115.332 73.6465 116.6L73.6357 113.711C80.0511 112.497 86.0485 110.108 91.3936 106.778L93.1611 109.022ZM105.381 99.0688C105.829 99.069 106.193 99.4329 106.193 99.8813V103.735C106.193 104.016 106.12 104.293 105.98 104.538L101.832 111.833C101.23 112.893 99.7187 112.936 99.0566 111.913L94.3193 104.592C94.1493 104.329 94.0586 104.023 94.0586 103.709V99.8813C94.0586 99.4329 94.4226 99.0688 94.8711 99.0688C95.3195 99.069 95.6836 99.4329 95.6836 99.8813V103.709L100.42 111.031L104.568 103.735V99.8813C104.568 99.4329 104.932 99.0688 105.381 99.0688ZM21.6416 107.338C21.6416 106.926 22.0436 106.633 22.4365 106.758L25.2783 107.667C25.5307 107.747 25.7021 107.982 25.7021 108.247V111.952C25.702 112.301 25.4084 112.578 25.0596 112.559L22.2178 112.404C21.8949 112.386 21.6417 112.119 21.6416 111.795V107.338ZM32.3135 95.5747C35.7448 93.8593 36.699 95.1453 36.7471 96.0034V107.732C36.7469 111.449 33.8875 110.306 33.6006 110.163C33.3718 110.048 25.5912 107.35 21.7295 106.015V100.152L32.3135 95.5747ZM35.6025 96.8667C35.6023 96.3063 35.0478 95.9142 34.5195 96.1011L33.5693 96.438C33.2452 96.5528 33.0284 96.8597 33.0283 97.2036V107.736C33.0283 108.088 33.2551 108.4 33.5898 108.508L34.54 108.817C35.0646 108.987 35.6025 108.596 35.6025 108.044V96.8667ZM100.973 94.3228C101.421 94.3228 101.785 94.6868 101.785 95.1353V105.306C101.785 105.754 101.421 106.118 100.973 106.118C100.524 106.117 100.16 105.754 100.16 105.306V95.1353C100.16 94.6869 100.524 94.323 100.973 94.3228ZM20.8301 106.098H19.2061C18.3091 106.098 17.5811 105.371 17.5811 104.474V101.631C17.5812 100.735 18.3092 100.007 19.2061 100.007H20.8301V106.098ZM65.4941 102.549C66.2037 102.8 66.7129 103.476 66.7129 104.271C66.7129 105.28 65.8947 106.098 64.8857 106.098C63.8766 106.098 63.0586 105.28 63.0586 104.271C63.0586 103.476 63.5664 102.801 64.2754 102.549V88.6392H65.4941V102.549ZM61.8398 97.7144C61.8398 98.339 61.5211 98.9209 60.9941 99.2563L59.8896 99.9595C59.714 100.071 59.6075 100.265 59.6074 100.473V102.23C60.2083 102.529 60.622 103.148 60.6221 103.865C60.6221 104.874 59.804 105.692 58.7949 105.692C57.7858 105.692 56.9678 104.874 56.9678 103.865C56.9679 102.995 57.5751 102.268 58.3887 102.083V100.473C58.3887 99.8485 58.7083 99.2665 59.2354 98.9312L60.3398 98.228C60.5154 98.1162 60.6221 97.9225 60.6221 97.7144V88.8413H61.8398V97.7144ZM97.7529 99.0688C98.2014 99.0688 98.5654 99.4329 98.5654 99.8813V104.627C98.5654 105.076 98.2014 105.44 97.7529 105.44C97.3045 105.44 96.9404 105.076 96.9404 104.627V99.8813C96.9405 99.4329 97.3045 99.0689 97.7529 99.0688ZM64.8857 103.458C64.4373 103.459 64.0733 103.823 64.0732 104.271C64.0733 104.719 64.4373 105.083 64.8857 105.083C65.3341 105.083 65.6982 104.719 65.6982 104.271C65.6982 103.823 65.3341 103.459 64.8857 103.458ZM58.7949 103.052C58.3465 103.052 57.9826 103.416 57.9824 103.865C57.9824 104.313 58.3464 104.677 58.7949 104.677C59.2434 104.677 59.6074 104.313 59.6074 103.865C59.6073 103.416 59.2433 103.052 58.7949 103.052ZM103.346 99.2388C103.794 99.2388 104.158 99.6028 104.158 100.051V103.102C104.158 103.55 103.794 103.915 103.346 103.915C102.898 103.914 102.533 103.55 102.533 103.102V100.051C102.533 99.6029 102.897 99.239 103.346 99.2388ZM91.4805 99.4077C91.9289 99.4077 92.2929 99.7718 92.293 100.22V102.932C92.293 103.381 91.929 103.745 91.4805 103.745C91.032 103.745 90.668 103.381 90.668 102.932V100.22C90.6681 99.7718 91.0321 99.4077 91.4805 99.4077ZM109.279 99.8813C110.309 99.8815 111.144 100.716 111.145 101.746L111.135 101.937C111.039 102.877 110.244 103.611 109.279 103.611L109.089 103.601C108.149 103.506 107.415 102.711 107.415 101.746C107.415 100.716 108.25 99.8815 109.279 99.8813ZM52.0957 99.3013C52.8047 99.5525 53.3125 100.228 53.3125 101.023C53.3124 102.032 52.4944 102.85 51.4854 102.85C50.4765 102.85 49.6583 102.032 49.6582 101.023C49.6582 100.228 50.1675 99.5522 50.877 99.3013V87.0142H52.0957V99.3013ZM109.279 101.099C108.923 101.099 108.633 101.389 108.633 101.746C108.633 102.103 108.922 102.392 109.279 102.392C109.636 102.392 109.926 102.103 109.926 101.746C109.926 101.389 109.636 101.099 109.279 101.099ZM51.4854 100.21C51.037 100.211 50.6729 100.575 50.6729 101.023C50.673 101.471 51.0371 101.835 51.4854 101.835C51.9338 101.835 52.2977 101.471 52.2979 101.023C52.2979 100.574 51.9339 100.21 51.4854 100.21ZM76.8633 97.271C77.5727 97.5219 78.0811 98.1973 78.0811 98.9927C78.0809 100.002 77.263 100.82 76.2539 100.82C75.2451 100.82 74.4269 100.002 74.4268 98.9927C74.4268 98.1973 74.936 97.5219 75.6455 97.271V87.4204H76.8633V97.271ZM72.3965 96.4585C73.1062 96.7092 73.6151 97.3846 73.6152 98.1802C73.6152 99.1893 72.7972 100.007 71.7881 100.007C70.779 100.007 69.961 99.1893 69.9609 98.1802C69.961 97.385 70.4695 96.7095 71.1787 96.4585V86.6079H72.3965V96.4585ZM76.2539 98.1802C75.8056 98.1805 75.4414 98.5443 75.4414 98.9927C75.4415 99.4409 75.8057 99.8049 76.2539 99.8052C76.7023 99.8052 77.0663 99.4411 77.0664 98.9927C77.0664 98.5442 76.7024 98.1802 76.2539 98.1802ZM71.7881 97.3677C71.3397 97.3677 70.9757 97.7318 70.9756 98.1802C70.9756 98.6286 71.3396 98.9926 71.7881 98.9927C72.2366 98.9927 72.6006 98.6287 72.6006 98.1802C72.6005 97.7318 72.2365 97.3677 71.7881 97.3677ZM12.1855 68.3364C13.2969 78.8518 17.5706 88.4296 24.041 96.1108L22.0225 98.1294C15.0463 89.9227 10.4586 79.6366 9.32812 68.3364H12.1855ZM56.3584 97.5718H55.1396V87.8267H56.3584V97.5718ZM118.415 78.8931C119.984 78.8933 121.257 80.1657 121.258 81.7349V88.2319C121.258 89.8015 119.985 91.0745 118.415 91.0747H110.807C109.957 92.4744 109.047 93.8339 108.078 95.1479L105.413 93.9644C106.123 93.0253 106.801 92.0616 107.447 91.0747H106.64C105.07 91.0744 103.798 89.8015 103.798 88.2319V81.7349C103.798 80.1657 105.07 78.8933 106.64 78.8931H118.415ZM48.6445 92.6987H47.4258V85.3901H48.6445V92.6987ZM90.5801 86.7456C90.795 86.6567 91.0313 86.6079 91.2783 86.6079C92.2871 86.6081 93.1053 87.4262 93.1055 88.4351C93.1055 89.444 92.2873 90.262 91.2783 90.2622C90.2692 90.2622 89.4512 89.4442 89.4512 88.4351C89.4512 88.1185 89.5311 87.8206 89.6729 87.561L85.4678 82.7983L85.9238 82.395L86.3799 81.9927L90.5801 86.7456ZM95.8145 86.3599C96.0412 86.2589 96.2924 86.2026 96.5566 86.2026C97.5656 86.2028 98.3838 87.0208 98.3838 88.0298C98.3836 89.0386 97.5655 89.8568 96.5566 89.8569C95.5477 89.8569 94.7297 89.0387 94.7295 88.0298C94.7295 87.73 94.8027 87.4474 94.9307 87.1978L88.5967 80.3208L89.0449 79.9087L89.4922 79.4956L95.8145 86.3599ZM38.3916 80.105L32.4346 86.856C32.5429 87.0895 32.6055 87.3491 32.6055 87.6235C32.6054 88.6324 31.7872 89.4505 30.7783 89.4507C29.7693 89.4507 28.9513 88.6326 28.9512 87.6235C28.9512 86.6144 29.7692 85.7964 30.7783 85.7964C31.0664 85.7964 31.3378 85.8651 31.5801 85.9839L37.4785 79.2993L38.3916 80.105ZM43.4082 81.5386L38.5264 86.8589C38.6339 87.0917 38.6963 87.3502 38.6963 87.6235C38.6962 88.6325 37.8781 89.4506 36.8691 89.4507C35.8601 89.4507 35.0421 88.6326 35.042 87.6235C35.042 86.6144 35.86 85.7964 36.8691 85.7964C37.1591 85.7964 37.4323 85.8656 37.6758 85.9858L42.5098 80.7144L43.4082 81.5386ZM91.2783 87.6226C90.83 87.6226 90.466 87.9868 90.4658 88.4351C90.4658 88.8835 90.8298 89.2475 91.2783 89.2476C91.7266 89.2473 92.0908 88.8834 92.0908 88.4351C92.0906 87.9869 91.7265 87.6228 91.2783 87.6226ZM96.5566 87.2173C96.1082 87.2173 95.7441 87.5813 95.7441 88.0298C95.7444 88.4781 96.1083 88.8423 96.5566 88.8423C97.0049 88.8421 97.3689 88.478 97.3691 88.0298C97.3691 87.5814 97.005 87.2174 96.5566 87.2173ZM84.2334 85.2749C84.449 85.1854 84.6856 85.1363 84.9336 85.1362C85.9426 85.1362 86.7606 85.9544 86.7607 86.9634C86.7607 87.9725 85.9427 88.7905 84.9336 88.7905C83.9246 88.7904 83.1065 87.9724 83.1064 86.9634C83.1065 86.6469 83.1865 86.3489 83.3281 86.0894L80.4736 82.9585L80.9238 82.5483L81.374 82.1372L84.2334 85.2749ZM30.7783 86.811C30.3298 86.8111 29.9658 87.175 29.9658 87.6235C29.9659 88.0719 30.3299 88.436 30.7783 88.436C31.2266 88.4358 31.5907 88.0718 31.5908 87.6235C31.5908 87.1752 31.2266 86.8112 30.7783 86.811ZM36.8691 86.811C36.4207 86.8111 36.0566 87.175 36.0566 87.6235C36.0568 88.0719 36.4207 88.436 36.8691 88.436C37.3175 88.4359 37.6815 88.0719 37.6816 87.6235C37.6816 87.1751 37.3175 86.8111 36.8691 86.811ZM84.9336 86.1509C84.4853 86.1511 84.1212 86.5151 84.1211 86.9634C84.1211 87.4118 84.4853 87.7757 84.9336 87.7759C85.3821 87.7759 85.7461 87.4119 85.7461 86.9634C85.7459 86.515 85.382 86.1509 84.9336 86.1509ZM112.596 82.4116C111.549 82.4116 110.7 83.5638 110.7 84.9839C110.7 86.404 111.549 87.5552 112.596 87.5552C113.642 87.5547 114.49 86.4037 114.49 84.9839C114.49 83.5641 113.642 82.4121 112.596 82.4116ZM106.911 84.3071C106.463 84.3071 106.099 84.6705 106.099 85.1187C106.099 85.5672 106.463 85.9312 106.911 85.9312H109.076C109.524 85.9309 109.889 85.567 109.889 85.1187C109.888 84.6707 109.524 84.3074 109.076 84.3071H106.911ZM116.386 84.3071C115.937 84.3071 115.574 84.6705 115.573 85.1187C115.573 85.5672 115.937 85.9312 116.386 85.9312H118.821C119.27 85.9309 119.634 85.567 119.634 85.1187C119.633 84.6707 119.269 84.3074 118.821 84.3071H116.386ZM118.487 67.5239C118.187 71.0547 117.551 74.4901 116.608 77.7974L113.927 76.8286C114.769 73.8281 115.349 70.7177 115.636 67.5239H118.487ZM109.144 72.8032C110.153 72.8033 110.971 73.6213 110.971 74.6304C110.971 75.6393 110.152 76.4574 109.144 76.4575C108.348 76.4575 107.674 75.9482 107.423 75.2388H96.3535V74.021H107.423C107.674 73.3118 108.348 72.8032 109.144 72.8032ZM109.144 73.8179C108.695 73.8179 108.331 74.1819 108.331 74.6304C108.331 75.0787 108.695 75.4429 109.144 75.4429C109.592 75.4428 109.956 75.0787 109.956 74.6304C109.956 74.1819 109.592 73.818 109.144 73.8179ZM106.707 68.7427C107.716 68.7427 108.534 69.5607 108.534 70.5698C108.534 71.5789 107.716 72.397 106.707 72.397C105.912 72.3968 105.237 71.8882 104.986 71.1792H100.008V69.9614H104.985C105.236 69.2517 105.911 68.7428 106.707 68.7427ZM106.707 69.7573C106.259 69.7575 105.895 70.1214 105.895 70.5698C105.895 71.0181 106.259 71.3821 106.707 71.3823C107.155 71.3823 107.519 71.0182 107.52 70.5698C107.52 70.1213 107.156 69.7573 106.707 69.7573ZM15.3057 52.9067C16.4268 52.9068 17.3358 53.8159 17.3359 54.937V62.6108L17.3252 62.8179C17.2284 63.7734 16.469 64.5331 15.5137 64.6304L15.3057 64.6411H11.8076V66.7534H9.45996V64.6411H5.80664L5.59863 64.6304C4.64318 64.5332 3.88396 63.7734 3.78711 62.8179L3.77637 62.6108V54.937C3.77645 53.886 4.57513 53.0216 5.59863 52.9175L5.80664 52.9067H15.3057ZM116.655 57.7798C118.673 57.78 120.31 59.416 120.31 61.4341C120.309 63.452 118.673 65.0882 116.655 65.0884C114.637 65.0884 113.001 63.4522 113.001 61.4341C113.001 59.4158 114.637 57.7798 116.655 57.7798ZM5.80664 54.1245C5.3582 54.1245 4.99423 54.4886 4.99414 54.937V62.6108C4.9942 63.0593 5.35818 63.4224 5.80664 63.4224H15.3057C15.7541 63.4223 16.1181 63.0592 16.1182 62.6108V54.937C16.1181 54.4886 15.754 54.1246 15.3057 54.1245H5.80664ZM12.8721 56.1665C13.3206 56.1665 13.6846 56.5305 13.6846 56.979V60.5063C13.6843 60.9787 13.2825 61.3514 12.8115 61.3159L7.52539 60.9165C7.10198 60.8844 6.77448 60.5316 6.77441 60.1069V59.8091C6.77441 59.6449 6.82402 59.4835 6.91699 59.3481L8.06543 57.6782C8.15844 57.5429 8.20892 57.3824 8.20898 57.2183V56.979C8.20898 56.5307 8.57221 56.1667 9.02051 56.1665H12.8721ZM12.5107 60.2085V57.4702H9.5127L12.5107 60.2085ZM105.242 27.0269C111.973 34.7355 116.569 44.3437 118.113 54.937H115.239C113.728 45.1281 109.452 36.2248 103.228 29.0425L105.242 27.0269ZM103.865 48.8462C104.874 48.8462 105.692 49.6644 105.692 50.6733C105.692 51.6825 104.874 52.5005 103.865 52.5005C103.07 52.5004 102.396 51.9919 102.145 51.2827H97.165V50.0649H102.145C102.395 49.3556 103.07 48.8463 103.865 48.8462ZM103.865 49.8608C103.417 49.8609 103.053 50.2251 103.053 50.6733C103.053 51.1218 103.417 51.4857 103.865 51.4858C104.314 51.4858 104.678 51.1218 104.678 50.6733C104.678 50.225 104.314 49.8608 103.865 49.8608ZM23.6006 30.1265C18.8867 35.8749 15.3878 42.6504 13.4961 50.064H10.5684C12.5513 41.8319 16.4039 34.3241 21.6562 28.0142L23.6006 30.1265ZM104.271 43.1616C105.28 43.1616 106.097 43.9798 106.098 44.9888C106.098 45.9979 105.28 46.8159 104.271 46.8159C103.475 46.8158 102.801 46.3073 102.55 45.5981H91.4805V44.3804H102.55C102.801 43.671 103.475 43.1618 104.271 43.1616ZM104.271 44.1763C103.822 44.1765 103.458 44.5405 103.458 44.9888C103.458 45.4371 103.822 45.8011 104.271 45.8013C104.719 45.8013 105.083 45.4373 105.083 44.9888C105.083 44.5404 104.719 44.1763 104.271 44.1763ZM95.3379 33.4165C96.3469 33.4165 97.1648 34.2347 97.165 35.2437C97.165 36.2528 96.347 37.0708 95.3379 37.0708C95.0722 37.0708 94.8205 37.0126 94.5928 36.9106L87.9004 43.9976L87.0146 43.1616L93.71 36.0708C93.5835 35.8224 93.5107 35.5415 93.5107 35.2437C93.511 34.2348 94.3289 33.4165 95.3379 33.4165ZM31.1836 33.0112C32.1927 33.0112 33.0107 33.8293 33.0107 34.8384C33.0107 35.1126 32.9481 35.3716 32.8398 35.605L38.7969 42.3569L37.8838 43.1626L31.9854 36.4771C31.743 36.5958 31.4717 36.6655 31.1836 36.6655C30.1747 36.6654 29.3566 35.8473 29.3564 34.8384C29.3565 33.8293 30.1746 33.0114 31.1836 33.0112ZM37.2744 33.0112C38.2835 33.0112 39.1015 33.8293 39.1016 34.8384C39.1015 35.1125 39.0389 35.3716 38.9307 35.605L44.8877 42.3569L43.9746 43.1626L38.0762 36.4771C37.8338 36.5958 37.5625 36.6655 37.2744 36.6655C36.2654 36.6655 35.4474 35.8473 35.4473 34.8384C35.4473 33.8293 36.2653 33.0112 37.2744 33.0112ZM89.6543 33.0112C90.6633 33.0114 91.4814 33.8294 91.4814 34.8384C91.4813 35.8473 90.6632 36.6654 89.6543 36.6655C89.3892 36.6655 89.1375 36.6079 88.9102 36.5063L83.8467 41.9604L82.9541 41.1323L88.0273 35.6665C87.9004 35.4177 87.8272 35.1369 87.8271 34.8384C87.8272 33.8293 88.6452 33.0112 89.6543 33.0112ZM73.8184 29.3569C74.8273 29.3572 75.6455 30.1751 75.6455 31.1841C75.6454 31.9793 75.1361 32.6539 74.4268 32.9048V39.5073H73.209V32.9048C72.4997 32.6538 71.9914 31.9793 71.9912 31.1841C71.9912 30.175 72.8092 29.3569 73.8184 29.3569ZM77.8789 25.7026C78.8879 25.7027 79.706 26.5207 79.7061 27.5298C79.7059 28.325 79.1966 28.9986 78.4873 29.2495V39.1021H77.2695V29.2495C76.5606 28.9984 76.0519 28.3248 76.0518 27.5298C76.0518 26.5207 76.8698 25.7027 77.8789 25.7026ZM53.3125 39.1011H52.0947V31.7925H53.3125V39.1011ZM48.6436 27.3267C49.6526 27.3267 50.4707 28.1448 50.4707 29.1538C50.4706 29.9488 49.9619 30.6234 49.2529 30.8745V37.8833H48.0352V30.8745C47.3256 30.6237 46.8165 29.9493 46.8164 29.1538C46.8164 28.1447 47.6345 27.3267 48.6436 27.3267ZM95.3379 34.4312C94.8896 34.4312 94.5257 34.7954 94.5254 35.2437C94.5254 35.6921 94.8894 36.0561 95.3379 36.0562C95.7864 36.0562 96.1504 35.6922 96.1504 35.2437C96.1501 34.7954 95.7862 34.4312 95.3379 34.4312ZM57.9824 23.6724C58.9915 23.6724 59.8096 24.4904 59.8096 25.4995C59.8094 26.295 59.3004 26.9695 58.5908 27.2202V35.853H57.373V27.2202C56.6641 26.9691 56.1554 26.2945 56.1553 25.4995C56.1553 24.4905 56.9734 23.6725 57.9824 23.6724ZM68.1338 23.2661C69.1428 23.2662 69.9609 24.0842 69.9609 25.0933C69.9609 25.8886 69.4516 26.5631 68.7422 26.814V35.853H67.5244V26.814C66.8152 26.5629 66.3067 25.8884 66.3066 25.0933C66.3067 24.0842 67.1247 23.2661 68.1338 23.2661ZM31.1836 34.0259C30.7352 34.026 30.3711 34.39 30.3711 34.8384C30.3713 35.2867 30.7353 35.6508 31.1836 35.6509C31.632 35.6509 31.9959 35.2867 31.9961 34.8384C31.9961 34.3899 31.6321 34.0259 31.1836 34.0259ZM37.2744 34.0259C36.8259 34.0259 36.4619 34.3899 36.4619 34.8384C36.4621 35.2867 36.826 35.6509 37.2744 35.6509C37.7228 35.6509 38.0867 35.2867 38.0869 34.8384C38.0869 34.3899 37.7229 34.0259 37.2744 34.0259ZM89.6543 34.0259C89.2058 34.0259 88.8418 34.3899 88.8418 34.8384C88.842 35.2867 89.2059 35.6509 89.6543 35.6509C90.1026 35.6507 90.4666 35.2866 90.4668 34.8384C90.4668 34.39 90.1027 34.026 89.6543 34.0259ZM63.2607 20.0181C64.2699 20.0181 65.0879 20.8361 65.0879 21.8452C65.0877 22.6404 64.5793 23.3149 63.8701 23.5659V35.4478H62.6523V23.5659C61.943 23.315 61.4338 22.6405 61.4336 21.8452C61.4336 20.8362 62.2518 20.0183 63.2607 20.0181ZM108.359 14.6597C108.7 14.6538 109.094 14.8363 109.389 15.1343C109.683 15.4322 109.859 15.8115 109.852 16.1685L109.68 23.2642C109.68 23.6691 109.435 23.9484 109.056 24.0103C108.677 24.072 108.222 23.8957 107.881 23.5513L106.41 22.064L102.744 25.5278L101.316 26.9565C101.303 26.9426 101.289 26.9294 101.275 26.9155L98.0615 29.9526C96.8168 31.1283 94.8546 31.0723 93.6787 29.8276C92.503 28.5829 92.559 26.6207 93.8037 25.4448L102.049 17.6548L100.956 16.5493C100.615 16.2049 100.437 15.7548 100.503 15.3765C100.54 15.2113 100.604 15.074 100.712 14.9673C100.847 14.8339 101.037 14.7561 101.262 14.7544L108.359 14.6597ZM28.8525 26.5513C29.2528 26.444 29.6702 26.6553 29.8203 27.0415L30.6123 29.0825C30.767 29.4807 30.587 29.9306 30.2002 30.1118L29.7773 30.3101C29.3957 30.4885 28.9412 30.3449 28.7305 29.98L27.5615 27.9556C27.2948 27.4932 27.539 26.9034 28.0547 26.7651L28.8525 26.5513ZM48.6436 28.3413C48.1951 28.3413 47.8311 28.7053 47.8311 29.1538C47.8312 29.6022 48.1952 29.9663 48.6436 29.9663C49.0919 29.9662 49.4559 29.6021 49.4561 29.1538C49.456 28.7054 49.092 28.3414 48.6436 28.3413ZM23.002 22.5396C23.3921 22.2857 23.9157 22.4118 24.1484 22.8149L26.3184 26.5718C26.5511 26.9749 26.3973 27.4907 25.9824 27.7017L24.6152 28.397C24.2304 28.5926 23.7598 28.4534 23.5439 28.0796L21.4561 24.4634C21.2402 24.0895 21.3549 23.6119 21.7168 23.3765L23.002 22.5396ZM77.8789 26.7173C77.4304 26.7173 77.0664 27.0813 77.0664 27.5298C77.0666 27.9781 77.4306 28.3423 77.8789 28.3423C78.3272 28.3422 78.6912 27.978 78.6914 27.5298C78.6914 27.0814 78.3273 26.7174 77.8789 26.7173ZM32.0947 10.5093C32.321 10.379 32.6096 10.4569 32.7402 10.6831L40.9277 24.8638C40.9738 24.9456 40.9982 25.0425 40.9893 25.1431C40.9658 25.4024 40.736 25.5939 40.4766 25.5708C38.083 25.3521 35.7805 25.3276 33.5732 25.4976C31.378 25.6671 29.2674 26.0283 27.2441 26.5806C27.0322 26.658 26.7885 26.5746 26.6719 26.3726L24.3057 22.2749C24.202 22.0927 24.2283 21.8546 24.3848 21.7007C25.8854 20.2181 27.2621 18.5619 28.5137 16.7349C29.7597 14.9155 30.8864 12.918 31.8906 10.7456C31.9285 10.6495 31.9984 10.5649 32.0947 10.5093ZM57.9824 24.687C57.534 24.6871 57.1699 25.0511 57.1699 25.4995C57.1701 25.9478 57.5342 26.3119 57.9824 26.312C58.4308 26.312 58.7947 25.9478 58.7949 25.4995C58.7949 25.051 58.4309 24.687 57.9824 24.687ZM68.1338 24.2808C67.6853 24.2808 67.3213 24.6448 67.3213 25.0933C67.3214 25.5417 67.6854 25.9057 68.1338 25.9058C68.5822 25.9057 68.9462 25.5416 68.9463 25.0933C68.9463 24.6448 68.5822 24.2809 68.1338 24.2808ZM33.1846 13.5103C32.9076 13.0312 32.2083 13.0532 31.9629 13.5493C31.8603 13.7569 31.8687 14.002 31.9844 14.2026L37.5352 23.8179C37.6559 24.0269 37.8769 24.1585 38.1182 24.1646C38.6591 24.1779 39.0058 23.5932 38.7354 23.1245L33.1846 13.5103ZM75.6455 9.50537C83.4731 11.2125 90.6742 14.587 96.8564 19.2349L94.8252 21.2651C89.1982 17.1026 82.6976 14.0444 75.6455 12.4175V9.50537ZM71.792 2.1626C72.8159 2.26643 73.6152 3.13086 73.6152 4.18213V15.9575L73.6045 16.1646C73.5075 17.1203 72.7477 17.8801 71.792 17.9771L71.585 17.9878H56.1553L55.9473 17.9771C54.992 17.8798 54.2327 17.12 54.1357 16.1646L54.125 15.9575V4.18213C54.125 3.13117 54.9238 2.26685 55.9473 2.1626L56.1553 2.15186H71.585L71.792 2.1626ZM52.0957 12.4175C47.557 13.4645 43.2462 15.1044 39.25 17.2495L38.0615 14.6626C42.421 12.3403 47.1327 10.5877 52.0957 9.50537V12.4175ZM56.1553 3.36963C55.7069 3.36976 55.3428 3.73371 55.3428 4.18213V15.9575C55.3429 16.4058 55.707 16.7689 56.1553 16.769H71.585C72.0333 16.7689 72.3963 16.4058 72.3965 15.9575V4.18213C72.3965 3.73371 72.0334 3.36975 71.585 3.36963H56.1553Z" fill="url(#paint8_linear_70_154)"/>
</g>
<g filter="url(#filter1_i_70_154)">
<path d="M63.578 35.1519C83.5735 35.1519 97.5326 46.665 106.902 60.9009L107.215 61.3755C107.435 61.7092 107.436 62.1421 107.215 62.4751C102.161 70.0813 96.4893 77.1728 88.078 82.0103C71.578 91.4995 52.4855 90.7877 39.078 82.0103C30.6673 77.1765 24.9925 70.0821 19.9422 62.4761C19.7208 62.1426 19.7213 61.7093 19.9422 61.3755L20.2547 60.9028C29.6245 46.6671 43.5826 35.1519 63.578 35.1519ZM40.7371 66.3267C40.6886 66.3731 40.6364 66.4187 40.5789 66.4604L33.3368 71.7271C33.7745 72.1355 34.2201 72.5345 34.6717 72.9263L47.2625 72.4497C48.0678 72.4193 48.7371 73.0638 48.7371 73.8696V75.0562H51.1737C51.9583 75.0563 52.5944 75.6924 52.5946 76.4771V77.6958C52.5943 78.4804 51.9583 79.1166 51.1737 79.1167H50.7674V77.8979H51.1737C51.2855 77.8978 51.3765 77.8076 51.3768 77.6958V76.4771C51.3766 76.3651 51.2856 76.274 51.1737 76.2739H46.3006V75.0562H47.5194V73.8696C47.5193 73.7546 47.4234 73.6622 47.3084 73.6665L36.0672 74.0933C43.3569 79.9446 52.3851 83.604 63.578 83.604C75.8832 83.604 85.5736 79.1776 93.2137 72.2798L88.4793 67.5444H80.1844C79.906 68.316 79.574 69.0618 79.1932 69.7778H84.4686C85.2534 69.7779 85.8895 70.4149 85.8895 71.1997V73.229C85.8897 73.3408 85.9808 73.4319 86.0926 73.4321H89.7469V74.6509H86.0926C85.3081 74.6507 84.672 74.0135 84.6717 73.229V71.1997C84.6717 71.0877 84.5806 70.9967 84.4686 70.9966H78.4803C78.118 71.561 77.7234 72.1027 77.2996 72.6196H82.4383V73.8384H76.2C73.0733 76.9909 68.739 78.9438 63.9481 78.9438C57.1787 78.9438 51.3208 75.0453 48.494 69.3716H42.037V68.1528H47.9452C47.7052 67.5596 47.4958 66.9505 47.3221 66.3267H40.7371ZM80.7957 74.7466C81.692 74.7466 82.4186 75.4734 82.4188 76.3696C82.4188 77.266 81.6921 77.9926 80.7957 77.9927C80.44 77.9926 80.1121 77.8763 79.8446 77.6821L75.5399 81.5972L75.1297 81.147L74.7196 80.6958L79.1864 76.6362L79.1981 76.6489C79.1823 76.5581 79.1727 76.465 79.1727 76.3696C79.1729 75.4735 79.8996 74.7468 80.7957 74.7466ZM80.7957 75.5571C80.3469 75.5573 79.9834 75.9208 79.9832 76.3696C79.9832 76.8186 80.3468 77.1829 80.7957 77.1831C81.2448 77.1831 81.6092 76.8187 81.6092 76.3696C81.609 75.9207 81.2447 75.5572 80.7957 75.5571ZM63.9481 49.3032C57.1086 49.3033 51.5644 54.8475 51.5643 61.687C51.5643 68.5266 57.1085 74.0717 63.9481 74.0718C70.7877 74.0717 76.3328 68.5266 76.3328 61.687C76.3328 54.8475 70.7876 49.3033 63.9481 49.3032ZM94.1102 71.4517C95.4112 70.2183 96.6507 68.9124 97.8319 67.5444H90.203L94.1102 71.4517ZM27.3319 65.1089C28.9179 67.1536 30.6181 69.0846 32.4422 70.8716L39.6014 65.6655V65.1089H27.3319ZM72.1649 61.8667L59.578 69.5815V54.1519L72.1649 61.8667ZM80.3055 56.1753C80.7407 57.4672 81.0261 58.8275 81.1434 60.2358H87.7069C88.0061 59.6348 88.6247 59.2203 89.3416 59.2202C90.3504 59.2204 91.1685 60.0386 91.1688 61.0474C91.1688 62.0564 90.3506 62.8743 89.3416 62.8745C88.4727 62.8744 87.7465 62.2675 87.5614 61.4546H81.202C81.203 61.5319 81.2049 61.6094 81.2049 61.687C81.2049 63.294 80.985 64.8497 80.5741 66.3257H98.8553C99.8496 65.1092 100.801 63.848 101.711 62.5493C101.968 62.1815 101.942 61.6838 101.651 61.3413C100.11 59.524 98.5883 57.7997 97.0662 56.1753H80.3055ZM29.9774 55.5669C28.3311 57.4072 26.8077 59.3504 25.4012 61.3618C25.165 61.6998 25.1651 62.1498 25.4012 62.4878C25.7316 62.9606 26.0686 63.4276 26.41 63.8901H39.743C40.5291 63.8901 41.0519 64.4644 41.1493 65.1079H47.0311C46.8087 64.0021 46.6912 62.8583 46.6912 61.687C46.6912 61.4732 46.6962 61.2603 46.7039 61.0483H38.1912C37.892 61.6491 37.2732 62.0629 36.5565 62.063C35.5476 62.0629 34.7295 61.2447 34.7293 60.2358C34.7295 59.2269 35.5475 58.4088 36.5565 58.4087C37.4258 58.4088 38.152 59.0161 38.3368 59.8296H46.7909C46.9499 58.3441 47.2978 56.9153 47.8094 55.5669H29.9774ZM89.3416 60.0327C88.7813 60.0328 88.3272 60.487 88.327 61.0474C88.327 61.6079 88.7811 62.0629 89.3416 62.063C89.9021 62.0628 90.3573 61.6079 90.3573 61.0474C90.357 60.4871 89.9019 60.0329 89.3416 60.0327ZM36.5565 59.2212C35.996 59.2213 35.542 59.6754 35.5418 60.2358C35.542 60.7962 35.9961 61.2513 36.5565 61.2515C37.1169 61.2513 37.5719 60.7962 37.5721 60.2358C37.572 59.6754 37.1169 59.2214 36.5565 59.2212ZM63.578 40.2446C58.8507 40.2446 54.5345 40.8978 50.5936 42.0708L51.0096 43.8374C51.0311 43.929 51.1129 43.9934 51.2069 43.9937H57.4666V45.2124H51.2069C50.5476 45.2122 49.9751 44.7584 49.8241 44.1167L49.4286 42.436C46.6849 43.341 44.1284 44.501 41.7469 45.8706C40.9493 46.3291 40.1704 46.8109 39.41 47.3149L45.0008 47.7905C45.736 47.8534 46.3014 48.4687 46.3016 49.2065V50.6938C46.3018 50.8058 46.3927 50.897 46.5047 50.897H50.4813C51.2959 49.8816 52.2224 48.9601 53.243 48.1519H49.6912C49.3205 48.5528 48.791 48.8051 48.202 48.8052C47.0815 48.8049 46.1727 47.8964 46.1727 46.7759C46.1728 45.6554 47.0816 44.7468 48.202 44.7466C49.3226 44.7467 50.2312 45.6553 50.2313 46.7759C50.2313 46.9045 50.218 47.0299 50.1952 47.1519H54.6424C57.3275 45.4292 60.5212 44.4302 63.9481 44.4302C68.5415 44.4302 72.7153 46.2254 75.8075 49.1519H81.2713C81.5347 48.3367 82.2992 47.7466 83.202 47.7466C84.3226 47.7466 85.2312 48.6553 85.2313 49.7759C85.2313 50.8965 84.3226 51.8051 83.202 51.8052C82.2099 51.8051 81.3853 51.0928 81.2088 50.1519H76.7821C77.2265 50.646 77.6435 51.1653 78.0291 51.7085H82.2362V52.9272H78.8182C79.2022 53.5776 79.5452 54.255 79.8426 54.9565H87.7254L91.7274 50.9546C84.0865 44.2339 75.6823 40.2446 63.578 40.2446ZM89.45 54.9565H95.9051C94.8226 53.8407 93.7364 52.7767 92.6356 51.77L89.45 54.9565ZM35.3328 50.3628C33.8414 51.6107 32.432 52.9453 31.0995 54.3481H40.9412L35.3328 50.3628ZM37.8436 48.4038C37.3242 48.7811 36.8138 49.1686 36.3123 49.5659L43.0438 54.3481H48.327C48.6929 53.5706 49.1144 52.8245 49.5877 52.1157H46.5047C45.72 52.1157 45.0831 51.4785 45.0828 50.6938V49.2065C45.0827 49.1014 45.0021 49.0135 44.8973 49.0044L37.8436 48.4038ZM83.202 48.5571C82.5288 48.5572 81.9833 49.1027 81.9832 49.7759C81.9832 50.4492 82.5287 50.9955 83.202 50.9956C83.8753 50.9956 84.4217 50.4492 84.4217 49.7759C84.4216 49.1026 83.8752 48.5572 83.202 48.5571ZM48.202 45.5571C47.5289 45.5574 46.9823 46.1028 46.9823 46.7759C46.9823 47.4491 47.5289 47.9954 48.202 47.9956C48.8753 47.9955 49.4207 47.4492 49.4207 46.7759C49.4207 46.1027 48.8752 45.5572 48.202 45.5571ZM77.5662 43.3853C78.1267 43.3854 78.5807 43.8395 78.5809 44.3999C78.5809 44.9605 78.1268 45.4154 77.5662 45.4155C77.0056 45.4155 76.5506 44.9605 76.5506 44.3999C76.5508 43.8394 77.0057 43.3853 77.5662 43.3853Z" fill="url(#paint9_linear_70_154)"/>
</g>
<defs>
<filter id="filter0_ddi_70_154" x="0.000192642" y="-0.000157952" width="125.034" height="128.552" filterUnits="userSpaceOnUse" color-interpolation-filters="sRGB">
<feFlood flood-opacity="0" result="BackgroundImageFix"/>
<feColorMatrix in="SourceAlpha" type="matrix" values="0 0 0 0 0 0 0 0 0 0 0 0 0 0 0 0 0 0 127 0" result="hardAlpha"/>
<feOffset dy="1.62416"/>
<feGaussianBlur stdDeviation="1.88809"/>
<feComposite in2="hardAlpha" operator="out"/>
<feColorMatrix type="matrix" values="0 0 0 0 0 0 0 0 0 0 0 0 0 0 0 0 0 0 0.25 0"/>
<feBlend mode="normal" in2="BackgroundImageFix" result="effect1_dropShadow_70_154"/>
<feColorMatrix in="SourceAlpha" type="matrix" values="0 0 0 0 0 0 0 0 0 0 0 0 0 0 0 0 0 0 127 0" result="hardAlpha"/>
<feOffset dy="0.40604"/>
<feComposite in2="hardAlpha" operator="out"/>
<feColorMatrix type="matrix" values="0 0 0 0 0.358394 0 0 0 0 0.214289 0 0 0 0 0.610577 0 0 0 1 0"/>
<feBlend mode="normal" in2="effect1_dropShadow_70_154" result="effect2_dropShadow_70_154"/>
<feBlend mode="normal" in="SourceGraphic" in2="effect2_dropShadow_70_154" result="shape"/>
<feColorMatrix in="SourceAlpha" type="matrix" values="0 0 0 0 0 0 0 0 0 0 0 0 0 0 0 0 0 0 127 0" result="hardAlpha"/>
<feOffset dy="0.40604"/>
<feGaussianBlur stdDeviation="0.223322"/>
<feComposite in2="hardAlpha" operator="arithmetic" k2="-1" k3="1"/>
<feColorMatrix type="matrix" values="0 0 0 0 0.718817 0 0 0 0 0.642312 0 0 0 0 0.850962 0 0 0 1 0"/>
<feBlend mode="normal" in2="shape" result="effect3_innerShadow_70_154"/>
</filter>
<filter id="filter1_i_70_154" x="19.7764" y="35.1519" width="87.9035" height="54.0109" filterUnits="userSpaceOnUse" color-interpolation-filters="sRGB">
<feFlood flood-opacity="0" result="BackgroundImageFix"/>
<feBlend mode="normal" in="SourceGraphic" in2="BackgroundImageFix" result="shape"/>
<feColorMatrix in="SourceAlpha" type="matrix" values="0 0 0 0 0 0 0 0 0 0 0 0 0 0 0 0 0 0 127 0" result="hardAlpha"/>
<feOffset dx="0.3" dy="0.3"/>
<feGaussianBlur stdDeviation="0.35"/>
<feComposite in2="hardAlpha" operator="arithmetic" k2="-1" k3="1"/>
<feColorMatrix type="matrix" values="0 0 0 0 1 0 0 0 0 1 0 0 0 0 1 0 0 0 1 0"/>
<feBlend mode="normal" in2="shape" result="effect1_innerShadow_70_154"/>
</filter>
<linearGradient id="paint0_linear_70_154" x1="147.222" y1="52.7653" x2="230.359" y2="55.4473" gradientUnits="userSpaceOnUse">
<stop stop-color="#886CB9"/>
<stop offset="1" stop-color="white"/>
</linearGradient>
<linearGradient id="paint1_linear_70_154" x1="245.948" y1="61.2348" x2="262.169" y2="61.3642" gradientUnits="userSpaceOnUse">
<stop stop-color="#886CB9"/>
<stop offset="1" stop-color="white"/>
</linearGradient>
<linearGradient id="paint2_linear_70_154" x1="278.519" y1="61.7004" x2="313.352" y2="62.3179" gradientUnits="userSpaceOnUse">
<stop stop-color="#886CB9"/>
<stop offset="1" stop-color="white"/>
</linearGradient>
<linearGradient id="paint3_linear_70_154" x1="362.418" y1="66.9192" x2="375.223" y2="67.1531" gradientUnits="userSpaceOnUse">
<stop stop-color="#886CB9"/>
<stop offset="1" stop-color="white"/>
</linearGradient>
<linearGradient id="paint4_linear_70_154" x1="318.131" y1="68.0383" x2="360.001" y2="69.2165" gradientUnits="userSpaceOnUse">
<stop stop-color="#886CB9"/>
<stop offset="1" stop-color="white"/>
</linearGradient>
<linearGradient id="paint5_linear_70_154" x1="394.403" y1="51.3988" x2="474.679" y2="53.7295" gradientUnits="userSpaceOnUse">
<stop stop-color="#886CB9"/>
<stop offset="1" stop-color="white"/>
</linearGradient>
<linearGradient id="paint6_linear_70_154" x1="157.677" y1="115.447" x2="410.032" y2="254.047" gradientUnits="userSpaceOnUse">
<stop stop-color="#886CB9"/>
<stop offset="1" stop-color="white"/>
</linearGradient>
<linearGradient id="paint7_linear_70_154" x1="157.677" y1="115.447" x2="410.032" y2="254.047" gradientUnits="userSpaceOnUse">
<stop stop-color="#886CB9"/>
<stop offset="1" stop-color="white"/>
</linearGradient>
<linearGradient id="paint8_linear_70_154" x1="6.58659" y1="97.5465" x2="74.3586" y2="100.101" gradientUnits="userSpaceOnUse">
<stop stop-color="#6339AD"/>
<stop offset="1" stop-color="white"/>
</linearGradient>
<linearGradient id="paint9_linear_70_154" x1="107.578" y1="62.4956" x2="19.5781" y2="62.4956" gradientUnits="userSpaceOnUse">
<stop stop-color="#F9F8F8"/>
<stop offset="1" stop-color="#663DAE"/>
</linearGradient>
</defs>
</svg>
